{
  "source": "C:\\Users\\Peter\\Desktop\\stuff\\MIUN\\quantitative_research\\video_compression\\videos\\BVI-HD\\BVI-HD_CDVL_videos\\ORIG\\Rowing_1920x1080_30fps.mp4",
  "output": "C:\\Users\\Peter\\Desktop\\stuff\\MIUN\\quantitative_research\\video_compression\\compressed_videos\\BVI-HD\\h264\\2\\Rowing_1920x1080_30fps_h264.mp4",
  "codec": "h264",
  "ok": "Input #0, mov,mp4,m4a,3gp,3g2,mj2, from 'C:\\Users\\Peter\\Desktop\\stuff\\MIUN\\quantitative_research\\video_compression\\videos\\BVI-HD\\BVI-HD_CDVL_videos\\ORIG\\Rowing_1920x1080_30fps.mp4':\n  Metadata:\n    major_brand     : isom\n    minor_version   : 512\n    compatible_brands: isomiso2avc1mp41\n    encoder         : Lavf54.28.101\n  Duration: 00:00:05.00, start: 0.000000, bitrate: 259220 kb/s\n  Stream #0:0[0x1](und): Video: h264 (High 4:4:4 Predictive) (avc1 / 0x31637661), yuv420p(progressive), 1920x1080, 259216 kb/s, 30 fps, 30 tbr, 30 tbn (default)\n    Metadata:\n      handler_name    : VideoHandler\n      vendor_id       : [0][0][0][0]\n[out#0/mp4 @ 00000172dc449a40] Codec AVOption b:a (set bitrate (in bits/s)) has not been used for any stream. The most likely reason is either wrong type (e.g. a video option with no video streams) or that it is a private option of some decoder which was not actually used for any stream.\nStream mapping:\n  Stream #0:0 -> #0:0 (h264 (native) -> h264 (libx264))\nPress [q] to stop, [?] for help\n[libx264 @ 00000172dcec0a40] using cpu capabilities: MMX2 SSE2Fast SSSE3 SSE4.2 AVX FMA3 BMI2 AVX2\n[libx264 @ 00000172dcec0a40] profile High, level 5.0, 4:2:0, 8-bit\n[libx264 @ 00000172dcec0a40] 264 - core 165 r3222 b35605a - H.264/MPEG-4 AVC codec - Copyleft 2003-2025 - http://www.videolan.org/x264.html - options: cabac=1 ref=5 deblock=1:0:0 analyse=0x3:0x113 me=hex subme=8 psy=1 psy_rd=1.00:0.00 mixed_ref=1 me_range=16 chroma_me=1 trellis=2 8x8dct=1 cqm=0 deadzone=21,11 fast_pskip=1 chroma_qp_offset=-2 threads=18 lookahead_threads=3 sliced_threads=0 nr=0 decimate=1 interlaced=0 bluray_compat=0 constrained_intra=0 bframes=3 b_pyramid=2 b_adapt=1 b_bias=0 direct=3 weightb=1 open_gop=0 weightp=2 keyint=250 keyint_min=25 scenecut=40 intra_refresh=0 rc_lookahead=50 rc=cbr mbtree=1 bitrate=2000 ratetol=1.0 qcomp=0.60 qpmin=0 qpmax=69 qpstep=4 vbv_maxrate=2000 vbv_bufsize=2000 nal_hrd=none filler=0 ip_ratio=1.40 aq=1:1.00\nOutput #0, mp4, to 'C:\\Users\\Peter\\Desktop\\stuff\\MIUN\\quantitative_research\\video_compression\\compressed_videos\\BVI-HD\\h264\\2\\Rowing_1920x1080_30fps_h264.mp4':\n  Metadata:\n    major_brand     : isom\n    minor_version   : 512\n    compatible_brands: isomiso2avc1mp41\n    encoder         : Lavf62.3.100\n  Stream #0:0(und): Video: h264 (avc1 / 0x31637661), yuv420p(tv, progressive), 1920x1080, q=2-31, 2000 kb/s, 30 fps, 15360 tbn (default)\n    Metadata:\n      encoder         : Lavc62.11.100 libx264\n      handler_name    : VideoHandler\n      vendor_id       : [0][0][0][0]\n    Side data:\n      cpb: bitrate max/min/avg: 2000000/0/2000000 buffer size: 2000000 vbv_delay: N/A\nframe=    0 fps=0.0 q=0.0 size=       0KiB time=N/A bitrate=N/A speed=N/A elapsed=0:00:00.51    \nframe=    0 fps=0.0 q=0.0 size=       0KiB time=N/A bitrate=N/A speed=N/A elapsed=0:00:01.05    \nframe=    0 fps=0.0 q=0.0 size=       0KiB time=N/A bitrate=N/A speed=N/A elapsed=0:00:01.57    \nframe=    0 fps=0.0 q=0.0 size=       0KiB time=N/A bitrate=N/A speed=N/A elapsed=0:00:02.08    \nframe=    6 fps=2.3 q=49.0 size=       0KiB time=00:00:00.13 bitrate=   2.9kbits/s speed=0.0509x elapsed=0:00:02.61    \nframe=   21 fps=6.7 q=48.0 size=       0KiB time=00:00:00.63 bitrate=   0.6kbits/s speed=0.202x elapsed=0:00:03.14    \nframe=   34 fps=9.2 q=48.0 size=       0KiB time=00:00:01.06 bitrate=   0.4kbits/s speed=0.29x elapsed=0:00:03.67    \nframe=   48 fps= 11 q=47.0 size=     256KiB time=00:00:01.53 bitrate=1368.0kbits/s speed=0.364x elapsed=0:00:04.21    \nframe=   62 fps= 13 q=47.0 size=     256KiB time=00:00:02.00 bitrate=1048.8kbits/s speed=0.423x elapsed=0:00:04.73    \nframe=   77 fps= 15 q=46.0 size=     256KiB time=00:00:02.50 bitrate= 839.0kbits/s speed=0.477x elapsed=0:00:05.24    \nframe=  112 fps= 19 q=46.0 size=     512KiB time=00:00:03.63 bitrate=1154.5kbits/s speed=0.63x elapsed=0:00:05.76    \nframe=  147 fps= 23 q=-1.0 size=     768KiB time=00:00:04.80 bitrate=1310.8kbits/s speed=0.762x elapsed=0:00:06.29    \n[mp4 @ 00000172dc451400] Starting second pass: moving the moov atom to the beginning of the file\n[out#0/mp4 @ 00000172dc449a40] video:989KiB audio:0KiB subtitle:0KiB other streams:0KiB global headers:0KiB muxing overhead: 0.144802%\nframe=  150 fps= 24 q=-1.0 Lsize=     991KiB time=00:00:04.93 bitrate=1645.3kbits/s speed=0.776x elapsed=0:00:06.35    \n[libx264 @ 00000172dcec0a40] frame I:1     Avg QP:45.96  size:  8967\n[libx264 @ 00000172dcec0a40] frame P:149   Avg QP:46.24  size:  6734\n[libx264 @ 00000172dcec0a40] mb I  I16..4: 37.5% 62.1%  0.4%\n[libx264 @ 00000172dcec0a40] mb P  I16..4: 15.2%  7.6%  0.1%  P16..4: 22.0%  0.8%  1.3%  0.0%  0.0%    skip:53.1%\n[libx264 @ 00000172dcec0a40] 8x8 transform intra:34.0% inter:97.5%\n[libx264 @ 00000172dcec0a40] coded y,uvDC,uvAC intra: 5.0% 11.9% 0.1% inter: 2.6% 5.4% 0.0%\n[libx264 @ 00000172dcec0a40] i16 v,h,dc,p: 37% 36%  6% 20%\n[libx264 @ 00000172dcec0a40] i8 v,h,dc,ddl,ddr,vr,hd,vl,hu:  2%  3% 56%  3% 12%  5% 11%  2%  6%\n[libx264 @ 00000172dcec0a40] i4 v,h,dc,ddl,ddr,vr,hd,vl,hu:  1%  2% 21%  7% 29%  9% 14%  4% 14%\n[libx264 @ 00000172dcec0a40] i8c dc,h,v,p: 97%  3%  0%  0%\n[libx264 @ 00000172dcec0a40] Weighted P-Frames: Y:0.0% UV:0.0%\n[libx264 @ 00000172dcec0a40] ref P L0: 39.3%  2.0% 22.8% 12.1% 11.7% 12.1%\n[libx264 @ 00000172dcec0a40] kb/s:1619.76\n",
  "seconds": 6.627495288848877,
  "probe_out": {}
}